<svg width="36" height="36" viewBox="0 0 36 36" fill="none" xmlns="http://www.w3.org/2000/svg">
<path fill-rule="evenodd" clip-rule="evenodd" d="M35.6226 22.2407C35.3938 22.1498 35.1326 22.2067 34.9626 22.3846L32.4001 25.0781V9.07942H32.4031L34.8481 6.43947C35.073 6.1964 35.0582 5.81656 34.8148 5.59162L34.8143 5.59107L33.9343 4.77206L35.1571 3.45209C35.3817 3.20874 35.3666 2.82918 35.1233 2.60451L32.4833 0.159564C32.2402 -0.0653759 31.8606 -0.0508193 31.6357 0.192522L27.3697 4.7987H6.60004C6.59811 3.14255 5.25613 1.80061 3.59995 1.79868H3.00009C1.3439 1.80061 0.00192261 3.14255 0 4.7987V30.5981C0 30.9293 0.268616 31.1979 0.600128 31.1979H9.6828L8.42267 32.711C8.21091 32.9659 8.24551 33.344 8.50012 33.5558L11.2668 35.8593C11.5214 36.0713 11.8998 36.0367 12.1119 35.7821L12.1122 35.7819L15.1831 32.0925C15.3951 31.837 15.5316 31.527 15.5767 31.1979H26.571L22.965 34.9845C22.7368 35.2246 22.7464 35.6044 22.9864 35.8327C23.0979 35.9387 23.246 35.998 23.4001 35.9977H35.3999C35.7314 35.9977 36 35.7291 36 35.3979V22.7983C36 22.5527 35.8506 22.3319 35.6226 22.2407ZM33.5602 6.05854L32.4003 7.31315V6.4307L33.1201 5.65069L33.5602 6.05854ZM31.2002 5.96018V5.95166H31.2073L32.2386 4.83823L30.4764 3.2079L24.3636 9.81381L26.1259 11.4441L31.2002 5.96018ZM24.9734 12.0115L23.5933 12.4142L23.888 11.0066L24.9734 12.0115ZM33.8679 3.07611L32.1065 1.4466L31.291 2.32741L33.0527 3.95856L33.8679 3.07611ZM3.00018 2.99867H3.60004C4.5943 2.99867 5.40015 3.8045 5.40015 4.79874V27.6138C4.88379 27.2166 4.25125 27.0002 3.60004 26.998H3.00018C2.34869 27.0002 1.71643 27.2166 1.20007 27.6138V4.79874C1.20007 3.8045 2.00592 2.99867 3.00018 2.99867ZM3.60004 28.1979H3.00018C2.00592 28.1979 1.20007 29.004 1.20007 29.998H5.40015C5.40015 29.004 4.5943 28.1979 3.60004 28.1979ZM14.2611 31.3251L13.8772 31.786L12.0328 30.2507L12.4163 29.7893C12.6283 29.5347 13.0065 29.5001 13.2611 29.7121C13.2614 29.7121 13.2614 29.7124 13.2617 29.7124L14.1837 30.4781C14.4386 30.6899 14.4734 31.0681 14.2617 31.3229L14.2611 31.3235V31.3251ZM9.72949 33.0178L11.5741 34.5531L13.1094 32.7082L11.2651 31.1727L9.72949 33.0178ZM15.3244 29.998C15.2247 29.8319 15.0986 29.6833 14.9511 29.5577L14.0291 28.7904C13.265 28.1543 12.1301 28.2578 11.494 29.0219L10.6799 29.998H6.59985V5.9987H26.2593L23.0752 9.43953C23.0296 9.49089 22.9934 9.55021 22.9684 9.61421C22.9612 9.63151 22.9557 9.64772 22.9497 9.66584C22.9475 9.67271 22.9448 9.67962 22.942 9.68661C22.9377 9.6978 22.9332 9.70922 22.9305 9.72105L22.2142 13.1457C22.1466 13.47 22.3548 13.7878 22.6792 13.8554C22.7756 13.8754 22.8753 13.8716 22.9695 13.8441L26.3297 12.865C26.338 12.8623 26.3457 12.8585 26.3533 12.8547C26.3599 12.8515 26.3664 12.8482 26.3733 12.8458C26.3884 12.8403 26.4041 12.8326 26.4203 12.8246C26.4876 12.7941 26.5486 12.751 26.6002 12.698L31.1999 7.72708V26.338L27.7139 29.998H15.3244ZM24.7997 34.7978H34.8V24.2981L24.7997 34.7978ZM28.8002 33.5978C28.5574 33.5978 28.3385 33.4517 28.2456 33.2276C28.1528 33.0035 28.2042 32.7453 28.3758 32.5736L32.5759 28.3739C32.6882 28.2613 32.841 28.1982 33 28.1982C33.3312 28.1982 33.6001 28.4665 33.6001 28.798V32.998C33.6001 33.3292 33.3315 33.5978 33 33.5978H28.8002ZM32.4003 32.3978V30.2462L30.2487 32.3978H32.4003ZM22.2001 22.7983H26.3999C26.7314 22.7983 27 23.0669 27 23.3981C27 23.7296 26.7314 23.9983 26.4001 23.9983H9.60013C9.26862 23.9983 9 23.7296 9 23.3981C9 23.0669 9.26862 22.7983 9.60013 22.7983H13.7999V16.1984C13.8005 16.0394 13.8634 15.8867 13.9752 15.7735L17.5751 12.1737C17.8094 11.9394 18.1892 11.9394 18.4235 12.1737L22.0235 15.7735C22.1358 15.8864 22.1992 16.0391 22.2001 16.1984V22.7983ZM20.1517 15.5983L18.0001 13.4467L15.8484 15.5983H20.1517ZM14.9999 16.7983H21.0001V22.7983H14.9999V16.7983ZM17.4 9.59855H18.6003V10.7985H17.4V9.59855ZM18.6003 25.1981H17.4V26.3981H18.6003V25.1981Z" fill="black"/>
</svg>
