<svg width="888" height="885" viewBox="0 0 888 885" fill="none" xmlns="http://www.w3.org/2000/svg">
<path d="M200.784 295.807L203.656 301.625L210.076 302.559L205.43 307.088L206.528 313.483L200.784 310.464L195.04 313.483L196.138 307.088L191.49 302.559L197.912 301.625L200.784 295.807Z" fill="#EBEBEB"/>
<path d="M775.588 569.73L778.46 575.548L784.88 576.482L780.234 581.011L781.332 587.406L775.588 584.387L769.845 587.406L770.94 581.011L766.294 576.482L772.716 575.548L775.588 569.73Z" fill="#F5F5F5"/>
<path d="M661.736 738.597L664.608 744.415L671.03 745.348L666.382 749.878L667.48 756.274L661.736 753.255L655.993 756.274L657.09 749.878L652.442 745.348L658.864 744.415L661.736 738.597Z" fill="#F5F5F5"/>
<path d="M401.278 192.634L402.344 194.793L404.727 195.139C405.322 195.226 405.56 195.956 405.129 196.377L403.404 198.059L403.811 200.434C403.912 201.027 403.291 201.478 402.76 201.199L400.627 200.078L398.494 201.199C397.961 201.48 397.339 201.027 397.442 200.434L397.849 198.059L396.124 196.377C395.695 195.958 395.931 195.226 396.526 195.139L398.909 194.793L399.975 192.634C400.243 192.094 401.012 192.094 401.278 192.634Z" fill="#EBEBEB"/>
<path d="M107.94 710.966L109.006 713.126L111.389 713.472C111.984 713.559 112.222 714.289 111.79 714.71L110.066 716.392L110.473 718.766C110.574 719.36 109.952 719.811 109.421 719.532L107.288 718.411L105.155 719.532C104.622 719.811 104.001 719.36 104.104 718.766L104.511 716.392L102.786 714.71C102.356 714.291 102.593 713.559 103.187 713.472L105.571 713.126L106.636 710.966C106.905 710.426 107.674 710.426 107.94 710.966Z" fill="#F5F5F5"/>
<path d="M155.853 169.807L156.919 171.966L159.302 172.313C159.897 172.4 160.135 173.129 159.703 173.55L157.979 175.232L158.386 177.607C158.487 178.2 157.865 178.651 157.332 178.37L155.199 177.25L153.068 178.37C152.535 178.651 151.914 178.198 152.015 177.607L152.422 175.232L150.697 173.55C150.267 173.131 150.504 172.4 151.099 172.313L153.482 171.966L154.548 169.807C154.818 169.267 155.587 169.267 155.853 169.807Z" fill="#EBEBEB"/>
<path d="M152.969 597.855C152.969 599.156 151.914 600.211 150.612 600.211C149.31 600.211 148.255 599.156 148.255 597.855C148.255 596.553 149.31 595.498 150.612 595.498C151.912 595.498 152.969 596.553 152.969 597.855Z" fill="#EBEBEB"/>
<path d="M489.592 302.284C489.592 303.586 488.537 304.64 487.235 304.64C485.933 304.64 484.878 303.586 484.878 302.284C484.878 300.982 485.933 299.927 487.235 299.927C488.537 299.927 489.592 300.982 489.592 302.284Z" fill="#EBEBEB"/>
<path d="M367.112 171.758C367.112 173.06 366.057 174.115 364.755 174.115C363.453 174.115 362.398 173.06 362.398 171.758C362.398 170.457 363.453 169.402 364.755 169.402C366.057 169.402 367.112 170.458 367.112 171.758Z" fill="#F5F5F5"/>
<path d="M370.901 747.356C377.915 745.7 382.258 738.671 380.602 731.657C378.946 724.642 371.917 720.299 364.903 721.955C357.889 723.611 353.545 730.64 355.202 737.654C356.858 744.669 363.887 749.012 370.901 747.356Z" fill="#F0F0F0"/>
<path d="M363.364 727.096C360.594 727.096 358.018 727.984 355.923 729.511C355.23 731.11 354.839 732.868 354.839 734.715C354.839 741.925 360.682 747.751 367.893 747.751C370.326 747.751 372.617 747.076 374.571 745.905C374.553 745.888 374.553 745.888 374.571 745.888C375.548 744.076 376.098 742.016 376.098 739.814C376.098 732.797 370.397 727.096 363.364 727.096Z" fill="#E6E6E6"/>
<path d="M262.28 507.858H154.201V459.062L262.28 330.591H313.988V461.829H340.788V507.858H313.988V547.768H262.28V507.858ZM262.28 461.829V394.629L205.171 461.829H262.28Z" fill="#407BFF"/>
<path d="M359.289 440.126C359.289 399.538 366.593 371.136 381.21 354.917C395.824 338.701 418.083 330.591 447.994 330.591C462.364 330.591 474.164 332.366 483.388 335.909C492.613 339.454 500.14 344.066 505.965 349.746C511.79 355.427 516.379 361.398 519.729 367.662C523.08 373.924 525.774 381.232 527.813 389.585C531.793 405.51 533.784 422.116 533.784 439.4C533.784 478.143 527.229 506.501 514.12 524.463C501.01 542.429 478.433 551.409 446.389 551.409C428.423 551.409 413.906 548.542 402.838 542.815C391.766 537.087 382.686 528.686 375.599 517.617C370.449 509.753 366.444 498.997 363.583 485.354C360.718 471.711 359.289 456.636 359.289 440.126ZM418.135 440.272C418.135 467.462 420.537 486.034 425.343 495.989C430.151 505.941 437.118 510.918 446.245 510.918C452.266 510.918 457.485 508.806 461.904 504.581C466.323 500.357 469.575 493.683 471.665 484.555C473.752 475.428 474.796 461.2 474.796 441.876C474.796 413.524 472.393 394.465 467.587 384.706C462.78 374.945 455.571 370.067 445.956 370.067C436.147 370.067 429.059 375.045 424.688 384.997C420.319 394.95 418.135 413.376 418.135 440.272Z" fill="#407BFF"/>
<path d="M660.217 507.858H552.139V459.062L660.217 330.591H711.925V461.829H738.725V507.858H711.925V547.768H660.217V507.858ZM660.217 461.829V394.629L603.11 461.829H660.217Z" fill="#407BFF"/>
<g opacity="0.3">
<path d="M356.891 255.618C356.891 257.447 355.408 258.93 353.578 258.93C351.749 258.93 350.266 257.447 350.266 255.618C350.266 253.788 351.749 252.305 353.578 252.305C355.408 252.305 356.891 253.788 356.891 255.618Z" fill="#407BFF"/>
<path d="M129.587 383.195C130.885 383.195 131.937 382.143 131.937 380.845C131.937 379.547 130.885 378.495 129.587 378.495C128.29 378.495 127.238 379.547 127.238 380.845C127.238 382.143 128.29 383.195 129.587 383.195Z" fill="#407BFF"/>
<path d="M516.912 725.561C518.768 725.561 520.274 724.056 520.274 722.199C520.274 720.343 518.768 718.837 516.912 718.837C515.055 718.837 513.55 720.343 513.55 722.199C513.55 724.056 515.055 725.561 516.912 725.561Z" fill="#407BFF"/>
<path d="M597.62 588.982C598.918 588.982 599.97 587.93 599.97 586.632C599.97 585.334 598.918 584.282 597.62 584.282C596.322 584.282 595.271 585.334 595.271 586.632C595.271 587.93 596.322 588.982 597.62 588.982Z" fill="#407BFF"/>
<path d="M753.331 166.819C753.331 168.118 752.28 169.169 750.981 169.169C749.683 169.169 748.632 168.118 748.632 166.819C748.632 165.521 749.683 164.47 750.981 164.47C752.28 164.47 753.331 165.521 753.331 166.819Z" fill="#407BFF"/>
<path d="M306.811 119.478C306.811 120.777 305.76 121.828 304.461 121.828C303.163 121.828 302.112 120.777 302.112 119.478C302.112 118.18 303.163 117.129 304.461 117.129C305.76 117.129 306.811 118.18 306.811 119.478Z" fill="#407BFF"/>
<path d="M493.186 242.56C494.484 242.56 495.536 241.508 495.536 240.211C495.536 238.913 494.484 237.861 493.186 237.861C491.888 237.861 490.836 238.913 490.836 240.211C490.836 241.508 491.888 242.56 493.186 242.56Z" fill="#407BFF"/>
</g>
<path d="M250.83 242.569C272.32 242.569 289.742 225.148 289.742 203.657C289.742 182.167 272.32 164.745 250.83 164.745C229.339 164.745 211.917 182.167 211.917 203.657C211.917 225.148 229.339 242.569 250.83 242.569Z" fill="#407BFF"/>
<path opacity="0.7" d="M250.83 242.569C272.32 242.569 289.742 225.148 289.742 203.657C289.742 182.167 272.32 164.745 250.83 164.745C229.339 164.745 211.917 182.167 211.917 203.657C211.917 225.148 229.339 242.569 250.83 242.569Z" fill="white"/>
<path opacity="0.2" d="M237.419 174.298C231.965 174.298 226.788 175.426 222.073 177.442C215.768 184.356 211.921 193.564 211.921 203.659C211.921 225.143 229.338 242.56 250.822 242.56C256.294 242.56 261.509 241.433 266.243 239.399C266.243 239.399 266.243 239.399 266.243 239.381C272.511 232.466 276.338 223.294 276.338 213.219C276.34 191.715 258.923 174.298 237.419 174.298Z" fill="#407BFF"/>
<path opacity="0.2" d="M233.551 184.586C233.551 186.551 231.958 188.144 229.994 188.144C228.03 188.144 226.437 186.551 226.437 184.586C226.437 182.622 228.03 181.029 229.994 181.029C231.958 181.029 233.551 182.622 233.551 184.586Z" fill="#407BFF"/>
<path opacity="0.2" d="M275.393 181.029C275.393 182.993 273.8 184.586 271.836 184.586C269.872 184.586 268.279 182.993 268.279 181.029C268.279 179.065 269.872 177.472 271.836 177.472C273.8 177.474 275.393 179.065 275.393 181.029Z" fill="#407BFF"/>
<path opacity="0.2" d="M268.279 206.392C268.279 209.607 265.673 212.214 262.457 212.214C259.242 212.214 256.635 209.607 256.635 206.392C256.635 203.178 259.241 200.57 262.457 200.57C265.672 200.57 268.279 203.178 268.279 206.392Z" fill="#407BFF"/>
<path opacity="0.2" d="M249.78 222.989C249.78 227.287 246.296 230.77 241.999 230.77C237.701 230.77 234.219 227.285 234.219 222.989C234.219 218.691 237.703 215.208 241.999 215.208C246.296 215.208 249.78 218.693 249.78 222.989Z" fill="#407BFF"/>
<path d="M712.011 673.13C716.344 654.777 704.98 636.386 686.627 632.053C668.274 627.719 649.884 639.084 645.55 657.436C641.217 675.789 652.581 694.18 670.934 698.513C689.286 702.847 707.677 691.482 712.011 673.13Z" fill="#407BFF"/>
<path opacity="0.3" d="M712.011 673.13C716.344 654.777 704.98 636.386 686.627 632.053C668.274 627.719 649.884 639.084 645.55 657.436C641.217 675.789 652.581 694.18 670.934 698.513C689.286 702.847 707.677 691.482 712.011 673.13Z" fill="white"/>
<path opacity="0.4" d="M700.335 638.738C697.229 637.795 693.92 637.296 690.5 637.296C671.64 637.296 656.349 652.587 656.349 671.445C656.349 682.133 661.249 691.654 668.941 697.921C672.047 698.865 675.356 699.364 678.778 699.364C697.638 699.364 712.927 684.072 712.927 665.215C712.927 654.529 708.027 644.988 700.335 638.738Z" fill="#407BFF"/>
<path d="M646.162 675.34C609.694 692.499 636.898 705.725 688.274 687.262C735.843 670.166 753.928 648.6 711.455 655.283C713.646 664.355 654.069 687.569 646.162 675.34Z" fill="#407BFF"/>
<path opacity="0.2" d="M699.916 330.586C652.16 362.856 590.337 405.409 573.27 507.849H569.629C586.235 406.652 645.802 362.98 693.576 330.586H699.916Z" fill="black"/>
<path d="M452.914 651.042C422.775 651.044 392.869 637.434 378.346 615.192C369.372 601.447 358.953 572.657 389.988 534.245L392.752 536.479C370.797 563.651 366.737 590.914 381.321 613.251C399.071 640.439 440.988 654.109 476.746 644.38C513.381 634.412 535.624 602.543 537.771 556.951C545.115 401.006 627.963 352.969 688.457 317.893C726.041 296.101 753.196 280.355 747.227 247.141C746.399 242.532 744.561 239.348 741.61 237.406C733.879 232.313 718.783 235.833 701.305 239.907C667.018 247.894 620.06 258.834 592.086 211.253L595.148 209.452C621.799 254.781 665.437 244.617 700.499 236.446C718.774 232.19 734.557 228.512 743.563 234.437C747.373 236.945 749.715 240.895 750.724 246.512C757.134 282.178 727.613 299.295 690.239 320.965C630.451 355.631 548.571 403.107 541.318 557.117C539.094 604.351 515.898 637.406 477.676 647.806C469.622 649.998 461.255 651.04 452.914 651.042Z" fill="#407BFF"/>
<path opacity="0.2" d="M452.914 651.042C422.775 651.044 392.869 637.434 378.346 615.192C369.372 601.447 358.953 572.657 389.988 534.245L392.752 536.479C370.797 563.651 366.737 590.914 381.321 613.251C399.071 640.439 440.988 654.109 476.746 644.38C513.381 634.412 535.624 602.543 537.771 556.951C545.115 401.006 627.963 352.969 688.457 317.893C726.041 296.101 753.196 280.355 747.227 247.141C746.399 242.532 744.561 239.348 741.61 237.406C733.879 232.313 718.783 235.833 701.305 239.907C667.018 247.894 620.06 258.834 592.086 211.253L595.148 209.452C621.799 254.781 665.437 244.617 700.499 236.446C718.774 232.19 734.557 228.512 743.563 234.437C747.373 236.945 749.715 240.895 750.724 246.512C757.134 282.178 727.613 299.295 690.239 320.965C630.451 355.631 548.571 403.107 541.318 557.117C539.094 604.351 515.898 637.406 477.676 647.806C469.622 649.998 461.255 651.04 452.914 651.042Z" fill="white"/>
<path d="M555.458 169.181C567.632 168.959 579.58 172.971 579.58 172.971C579.58 172.971 599.053 206.309 601.428 213.938C600.609 221.469 587.904 233.814 587.904 233.814L555.458 169.181Z" fill="#407BFF"/>
<path opacity="0.3" d="M555.458 169.181C567.632 168.959 579.58 172.971 579.58 172.971C579.58 172.971 599.053 206.309 601.428 213.938C600.609 221.469 587.904 233.814 587.904 233.814L555.458 169.181Z" fill="white"/>
<path d="M613.322 331.124C605.976 321.804 598.764 312.309 592.793 302.024C591.301 299.455 589.887 296.837 588.55 294.183C587.79 292.676 587.055 291.155 586.341 289.624C585.717 288.287 584.341 286.317 584.202 284.858C582.069 262.352 589.774 245.786 582.377 227.72L553.124 239.152C553.124 239.152 555.612 271.337 561.29 290.591C564.814 302.536 572.79 312.878 580.476 322.447C582.881 325.441 585.199 328.503 587.598 331.501C589.869 334.339 592.414 336.942 594.691 339.766C598.149 344.052 599.3 348.142 596.672 353.195C596.531 353.464 596.384 353.733 596.233 353.999C595.487 355.315 598.979 356.807 601.172 354.036C604.798 349.453 604.228 349.735 607.32 345.826C609.198 343.453 611.354 340.89 613.215 338.663C615.034 336.491 615.074 333.348 613.322 331.124Z" fill="#407BFF"/>
<path opacity="0.7" d="M613.322 331.124C605.976 321.804 598.764 312.309 592.793 302.024C591.301 299.455 589.887 296.837 588.55 294.183C587.79 292.676 587.055 291.155 586.341 289.624C585.717 288.287 584.341 286.317 584.202 284.858C582.069 262.352 589.774 245.786 582.377 227.72L553.124 239.152C553.124 239.152 555.612 271.337 561.29 290.591C564.814 302.536 572.79 312.878 580.476 322.447C582.881 325.441 585.199 328.503 587.598 331.501C589.869 334.339 592.414 336.942 594.691 339.766C598.149 344.052 599.3 348.142 596.672 353.195C596.531 353.464 596.384 353.733 596.233 353.999C595.487 355.315 598.979 356.807 601.172 354.036C604.798 349.453 604.228 349.735 607.32 345.826C609.198 343.453 611.354 340.89 613.215 338.663C615.034 336.491 615.074 333.348 613.322 331.124Z" fill="white"/>
<path opacity="0.3" d="M606.169 321.862C602.253 326.595 594.292 332.735 590.782 335.223C591.546 336.074 592.302 336.942 593.061 337.811C600.286 333.092 605.997 326.97 608.164 324.484C607.494 323.622 606.832 322.741 606.169 321.862Z" fill="#407BFF"/>
<path opacity="0.3" d="M613.314 331.128C613.247 331.035 613.176 330.961 613.108 330.87C611.876 332.154 611.007 334.202 610.862 336.5C610.745 338.088 611.011 339.541 611.531 340.676C612.123 339.99 612.675 339.312 613.217 338.667C615.043 336.493 615.067 333.351 613.314 331.128Z" fill="#407BFF"/>
<path d="M548.503 190.497C545.443 194.948 541.836 199.334 537.181 203.273C534.871 205.254 532.233 207.046 529.336 208.566C527.875 209.312 526.339 209.958 524.749 210.493L523.55 210.878L523.163 210.999C522.883 211.084 522.6 211.161 522.316 211.228C521.78 211.349 521.241 211.431 520.766 211.47C518.842 211.615 517.448 211.342 516.299 211.056C514.031 210.438 512.516 209.612 511.083 208.811C509.671 207.996 508.431 207.161 507.257 206.3C504.945 204.54 502.853 202.773 500.903 200.887C496.978 197.139 493.497 193.253 490.264 188.925C488.79 186.952 489.195 184.158 491.168 182.686C492.691 181.548 494.703 181.53 496.218 182.487L496.353 182.574C500.544 185.235 504.773 188.041 508.898 190.552C510.982 191.781 513.017 193.017 515.018 193.98C516.002 194.477 516.967 194.93 517.837 195.251C518.684 195.582 519.529 195.77 519.75 195.725C519.842 195.72 519.732 195.594 519.078 195.617C518.92 195.626 518.696 195.647 518.469 195.697C518.338 195.722 518.21 195.756 518.082 195.797C517.959 195.837 518.133 195.763 518.144 195.752L518.732 195.452C519.513 195.054 520.263 194.557 521.023 194.051C522.543 193.022 523.991 191.717 525.468 190.286C528.392 187.382 531.205 183.768 534.174 180.01L534.213 179.958C537.254 176.108 542.841 175.452 546.692 178.493C550.379 181.404 551.119 186.677 548.503 190.497Z" fill="#407BFF"/>
<path opacity="0.7" d="M548.503 190.497C545.443 194.948 541.836 199.334 537.181 203.273C534.871 205.254 532.233 207.046 529.336 208.566C527.875 209.312 526.339 209.958 524.749 210.493L523.55 210.878L523.163 210.999C522.883 211.084 522.6 211.161 522.316 211.228C521.78 211.349 521.241 211.431 520.766 211.47C518.842 211.615 517.448 211.342 516.299 211.056C514.031 210.438 512.516 209.612 511.083 208.811C509.671 207.996 508.431 207.161 507.257 206.3C504.945 204.54 502.853 202.773 500.903 200.887C496.978 197.139 493.497 193.253 490.264 188.925C488.79 186.952 489.195 184.158 491.168 182.686C492.691 181.548 494.703 181.53 496.218 182.487L496.353 182.574C500.544 185.235 504.773 188.041 508.898 190.552C510.982 191.781 513.017 193.017 515.018 193.98C516.002 194.477 516.967 194.93 517.837 195.251C518.684 195.582 519.529 195.77 519.75 195.725C519.842 195.72 519.732 195.594 519.078 195.617C518.92 195.626 518.696 195.647 518.469 195.697C518.338 195.722 518.21 195.756 518.082 195.797C517.959 195.837 518.133 195.763 518.144 195.752L518.732 195.452C519.513 195.054 520.263 194.557 521.023 194.051C522.543 193.022 523.991 191.717 525.468 190.286C528.392 187.382 531.205 183.768 534.174 180.01L534.213 179.958C537.254 176.108 542.841 175.452 546.692 178.493C550.379 181.404 551.119 186.677 548.503 190.497Z" fill="white"/>
<path d="M483.578 178.891L485.659 182.382C485.659 182.382 487.249 187.028 490.43 187.888L499.05 185.096L498.619 184.372C498.622 184.373 498.628 184.373 498.631 184.373C497.526 182.691 497.645 179.448 498.034 176.751C498.422 174.053 497.022 173.957 495.989 174.628C495.392 175.016 494.969 176.246 494.484 177.573C494.06 176.989 493.605 176.426 493.092 175.914L490.458 173.291C489.321 172.16 487.501 172.108 486.302 173.174L484.167 175.071C483.081 176.037 482.834 177.64 483.578 178.891Z" fill="#407BFF"/>
<path opacity="0.7" d="M483.578 178.891L485.659 182.382C485.659 182.382 487.249 187.028 490.43 187.888L499.05 185.096L498.619 184.372C498.622 184.373 498.628 184.373 498.631 184.373C497.526 182.691 497.645 179.448 498.034 176.751C498.422 174.053 497.022 173.957 495.989 174.628C495.392 175.016 494.969 176.246 494.484 177.573C494.06 176.989 493.605 176.426 493.092 175.914L490.458 173.291C489.321 172.16 487.501 172.108 486.302 173.174L484.167 175.071C483.081 176.037 482.834 177.64 483.578 178.891Z" fill="white"/>
<path d="M564.189 166.118C555.932 168.121 544.589 172.833 536.929 177.605C534.213 179.296 532.858 182.507 533.498 185.641C536.915 202.407 544.711 224.864 553.128 239.15L592.397 222.905C592.667 215.979 583.133 193.566 573.422 171.904C571.678 168.007 568.338 165.113 564.189 166.118Z" fill="#407BFF"/>
<path opacity="0.8" d="M564.189 166.118C555.932 168.121 544.589 172.833 536.929 177.605C534.213 179.296 532.858 182.507 533.498 185.641C536.915 202.407 544.711 224.864 553.128 239.15L592.397 222.905C592.667 215.979 583.133 193.566 573.422 171.904C571.678 168.007 568.338 165.113 564.189 166.118Z" fill="white"/>
<path opacity="0.3" d="M579.501 185.636L571.708 183.024C573.452 187.583 579.759 193.362 584.193 196.756C582.732 193.193 581.147 189.469 579.501 185.636Z" fill="#407BFF"/>
<path d="M561.601 148.528C558.36 142.346 551.347 139.235 542.925 139.938C535.824 140.531 529.527 147.781 530.274 151.698C531.02 155.616 536.996 157.275 538.078 158.636L533.153 162.205C530.702 163.983 530.223 167.439 532.095 169.819C534.167 172.451 536.895 175.2 538.485 177.141C552.096 176.788 562.162 171.595 565.789 166.599C564.485 160.243 564.825 154.677 561.601 148.528Z" fill="#407BFF"/>
<path opacity="0.8" d="M561.601 148.528C558.36 142.346 551.347 139.235 542.925 139.938C535.824 140.531 529.527 147.781 530.274 151.698C531.02 155.616 536.996 157.275 538.078 158.636L533.153 162.205C530.702 163.983 530.223 167.439 532.095 169.819C534.167 172.451 536.895 175.2 538.485 177.141C552.096 176.788 562.162 171.595 565.789 166.599C564.485 160.243 564.825 154.677 561.601 148.528Z" fill="white"/>
<path d="M554.93 152.357C557.633 159.277 554.218 167.077 547.299 169.78C540.38 172.483 532.579 169.068 529.876 162.148C527.173 155.231 530.588 147.429 537.508 144.726C544.425 142.023 552.225 145.44 554.93 152.357Z" fill="#263238"/>
<path d="M670.241 312.41C670.044 306.569 669.791 307.154 669.621 302.174C669.518 299.149 669.505 295.8 669.486 292.898C669.466 290.065 667.465 287.641 664.689 287.078C662.336 286.6 659.975 286.145 657.626 285.644C654.56 284.991 651.53 284.288 648.52 283.414C646.187 282.735 643.872 281.988 641.585 281.164C639.134 280.281 636.717 279.313 634.323 278.286C631.524 277.086 628.759 275.807 626.015 274.489C622.951 273.019 619.911 271.499 616.881 269.959C605.193 250.609 604.941 237.859 592.397 222.904L565.473 235.083C565.473 235.083 585.256 270.186 598.728 285.069C606.484 293.635 618.651 297.496 629.503 300.298C637.331 302.319 645.27 303.866 653.218 305.326C656.308 305.893 659.666 306.113 662.325 307.958C664.419 309.411 665.502 311.679 666.12 314.089C666.246 314.581 666.353 315.078 666.449 315.579C666.733 317.065 670.361 315.943 670.241 312.41Z" fill="#407BFF"/>
<path opacity="0.8" d="M670.241 312.41C670.044 306.569 669.791 307.154 669.621 302.174C669.518 299.149 669.505 295.8 669.486 292.898C669.466 290.065 667.465 287.641 664.689 287.078C662.336 286.6 659.975 286.145 657.626 285.644C654.56 284.991 651.53 284.288 648.52 283.414C646.187 282.735 643.872 281.988 641.585 281.164C639.134 280.281 636.717 279.313 634.323 278.286C631.524 277.086 628.759 275.807 626.015 274.489C622.951 273.019 619.911 271.499 616.881 269.959C605.193 250.609 604.941 237.859 592.397 222.904L565.473 235.083C565.473 235.083 585.256 270.186 598.728 285.069C606.484 293.635 618.651 297.496 629.503 300.298C637.331 302.319 645.27 303.866 653.218 305.326C656.308 305.893 659.666 306.113 662.325 307.958C664.419 309.411 665.502 311.679 666.12 314.089C666.246 314.581 666.353 315.078 666.449 315.579C666.733 317.065 670.361 315.943 670.241 312.41Z" fill="white"/>
<path opacity="0.3" d="M656.587 285.422C655.527 285.19 654.45 284.952 653.379 284.698C653.463 290.83 650.587 301.422 649.531 304.632C650.651 304.843 651.788 305.06 652.909 305.273C656.026 296.846 656.516 287.925 656.587 285.422Z" fill="#407BFF"/>
<path opacity="0.3" d="M669.482 292.899C669.463 290.06 667.468 287.641 664.698 287.072C664.14 286.959 663.565 286.838 663.003 286.742C663.121 288.411 664.158 290.349 665.895 291.887C667.033 292.914 668.321 293.596 669.504 293.917C669.486 293.564 669.484 293.231 669.482 292.899Z" fill="#407BFF"/>
<path d="M552.417 152.471C553.137 155.163 550.123 157.994 547.711 155.666C545.754 153.776 542.806 150.612 540.399 149.107C537.927 147.56 541.223 144.868 545.106 145.912C548.73 146.889 551.698 149.777 552.417 152.471Z" fill="white"/>
<path d="M552.622 238.287C551.37 238.749 553.657 240.873 553.657 240.873C553.657 240.873 578.468 232.371 593.608 223.618C593.736 221.787 592.404 220.815 592.404 220.815C592.404 220.815 573.983 230.413 552.622 238.287Z" fill="#407BFF"/>
<path opacity="0.5" d="M552.622 238.287C551.37 238.749 553.657 240.873 553.657 240.873C553.657 240.873 578.468 232.371 593.608 223.618C593.736 221.787 592.404 220.815 592.404 220.815C592.404 220.815 573.983 230.413 552.622 238.287Z" fill="white"/>
<path d="M570.912 164.944C575.811 167.418 580.421 170.037 585.026 172.938C587.319 174.382 589.601 175.865 591.85 177.465C594.116 179.033 596.352 180.686 598.595 182.548L599.437 183.237L600.486 184.183C601.232 184.84 601.779 185.446 602.328 186.05C602.904 186.673 603.378 187.274 603.845 187.872C604.33 188.474 604.79 189.073 605.203 189.662C606.96 192.021 608.391 194.42 609.796 196.8C612.526 201.625 614.89 206.444 616.84 211.628C617.71 213.94 616.541 216.519 614.227 217.391C612.49 218.045 610.601 217.547 609.4 216.279L609.313 216.183C605.745 212.404 602.323 208.417 598.879 204.714C595.51 201.022 591.931 197.232 589.045 195.583C585.014 193.069 580.524 190.572 576.063 188.112L562.631 180.656L562.597 180.638C558.308 178.259 556.761 172.852 559.141 168.563C561.466 164.381 566.68 162.813 570.912 164.944Z" fill="#407BFF"/>
<path opacity="0.8" d="M570.912 164.944C575.811 167.418 580.421 170.037 585.026 172.938C587.319 174.382 589.601 175.865 591.85 177.465C594.116 179.033 596.352 180.686 598.595 182.548L599.437 183.237L600.486 184.183C601.232 184.84 601.779 185.446 602.328 186.05C602.904 186.673 603.378 187.274 603.845 187.872C604.33 188.474 604.79 189.073 605.203 189.662C606.96 192.021 608.391 194.42 609.796 196.8C612.526 201.625 614.89 206.444 616.84 211.628C617.71 213.94 616.541 216.519 614.227 217.391C612.49 218.045 610.601 217.547 609.4 216.279L609.313 216.183C605.745 212.404 602.323 208.417 598.879 204.714C595.51 201.022 591.931 197.232 589.045 195.583C585.014 193.069 580.524 190.572 576.063 188.112L562.631 180.656L562.597 180.638C558.308 178.259 556.761 172.852 559.141 168.563C561.466 164.381 566.68 162.813 570.912 164.944Z" fill="white"/>
<path d="M621.125 220.311L619.617 216.537C619.617 216.537 618.776 211.699 615.769 210.351L606.818 211.757L607.13 212.541C607.127 212.539 607.123 212.537 607.118 212.537C607.946 214.37 607.319 217.556 606.512 220.158C605.706 222.762 607.073 223.076 608.199 222.575C608.849 222.286 609.46 221.137 610.146 219.902C610.475 220.547 610.835 221.174 611.261 221.758L613.451 224.761C614.396 226.056 616.186 226.393 617.538 225.529L619.942 223.989C621.17 223.206 621.667 221.662 621.125 220.311Z" fill="#407BFF"/>
<path opacity="0.8" d="M621.125 220.311L619.617 216.537C619.617 216.537 618.776 211.699 615.769 210.351L606.818 211.757L607.13 212.541C607.127 212.539 607.123 212.537 607.118 212.537C607.946 214.37 607.319 217.556 606.512 220.158C605.706 222.762 607.073 223.076 608.199 222.575C608.849 222.286 609.46 221.137 610.146 219.902C610.475 220.547 610.835 221.174 611.261 221.758L613.451 224.761C614.396 226.056 616.186 226.393 617.538 225.529L619.942 223.989C621.17 223.206 621.667 221.662 621.125 220.311Z" fill="white"/>
<path opacity="0.3" d="M563.41 185.357L561.245 185.533L547.952 217.65C548.734 217.703 549.451 217.638 550.115 217.474C550.115 217.474 567.449 211.015 572.695 208.648C569.165 201.331 563.41 185.357 563.41 185.357Z" fill="#407BFF"/>
<path d="M539.136 193.784C539.877 199.569 544.214 211.862 547.954 217.65C554.445 215.412 565.288 211.191 570.534 208.823C567.002 201.508 563.283 191.428 561.247 185.535C555.655 185.906 543.466 190.497 539.136 193.784Z" fill="white"/>
<path opacity="0.3" d="M552.335 200.73C551.611 203.155 549.057 204.531 546.634 203.805C544.212 203.078 542.834 200.526 543.56 198.104C544.286 195.679 546.839 194.303 549.261 195.029C551.684 195.754 553.06 198.306 552.335 200.73Z" fill="#407BFF"/>
<path opacity="0.6" d="M555.733 194.612C555.495 195.406 554.658 195.857 553.864 195.619C553.071 195.381 552.62 194.544 552.856 193.751C553.094 192.957 553.93 192.506 554.724 192.744C555.52 192.98 555.971 193.816 555.733 194.612Z" fill="#407BFF"/>
<path opacity="0.6" d="M559.697 193.069C559.459 193.862 558.623 194.314 557.829 194.076C557.035 193.838 556.584 193.001 556.822 192.207C557.06 191.413 557.896 190.962 558.69 191.2C559.484 191.438 559.935 192.275 559.697 193.069Z" fill="#407BFF"/>
<path opacity="0.5" d="M565.284 206.9L548.861 213.39L547.869 210.161L564.291 203.67L565.284 206.9Z" fill="#407BFF"/>
<path opacity="0.2" d="M474.648 453.734C474.293 467.125 473.299 477.408 471.665 484.547C469.569 493.676 466.319 500.354 461.897 504.581C457.492 508.808 452.271 510.921 446.25 510.921C437.121 510.921 430.142 505.948 425.347 495.985C424.565 494.369 423.855 492.522 423.198 490.462C413.057 499.182 403.608 508.701 394.924 518.931L385.493 530.049C390.59 535.217 396.38 539.461 402.845 542.818C413.909 548.537 428.419 551.414 446.392 551.414C449.553 551.414 452.608 551.325 455.574 551.147C466.443 535.057 475.448 517.759 482.392 499.608L508.765 430.841L474.648 453.734Z" fill="black"/>
<path d="M236.897 547.485C246.837 557.426 267.981 578.569 267.981 578.569L355.024 496.576C325.07 485.189 266.682 517.702 236.897 547.485Z" fill="#263238"/>
<path d="M345.293 655.882C335.353 645.942 314.209 624.798 314.209 624.798L396.202 537.757C407.59 567.709 375.078 626.096 345.293 655.882Z" fill="#263238"/>
<path d="M464.244 460.001L498.15 394.629L432.777 428.534C411.774 439.428 392.384 453.18 375.156 469.396L263.718 574.305L318.472 629.059L423.38 517.62C439.599 500.395 453.35 481.004 464.244 460.001Z" fill="#407BFF"/>
<path opacity="0.6" d="M464.244 460.001L498.15 394.629L432.777 428.534C411.774 439.428 392.384 453.18 375.156 469.396L263.718 574.305L318.472 629.059L423.38 517.62C439.599 500.395 453.35 481.004 464.244 460.001Z" fill="white"/>
<path d="M394.623 521.066C407.276 521.066 417.532 510.809 417.532 498.157C417.532 485.505 407.276 475.248 394.623 475.248C381.971 475.248 371.715 485.505 371.715 498.157C371.715 510.809 381.971 521.066 394.623 521.066Z" fill="white"/>
<path d="M394.621 512.871C402.748 512.871 409.336 506.283 409.336 498.157C409.336 490.031 402.748 483.443 394.621 483.443C386.495 483.443 379.907 490.031 379.907 498.157C379.907 506.283 386.495 512.871 394.621 512.871Z" fill="#407BFF"/>
<path opacity="0.3" d="M336.988 609.393L283.385 555.792L327.272 514.475L378.304 565.506L336.988 609.393Z" fill="#407BFF"/>
<path d="M249.03 596.606C208.884 599.872 195.585 625.565 191.049 659.723C188.737 677.144 187.711 694.769 173.082 704.967C169.022 707.798 171.037 714.108 175.985 713.953C229.867 712.272 255 685.886 258.156 674.837C257.069 681.822 255.484 687.331 253.73 691.665C251.925 696.117 256.815 700.237 260.885 697.687C276.011 688.21 294.983 670.772 296.244 642.493C285.06 626.775 249.03 596.606 249.03 596.606Z" fill="#407BFF"/>
<path opacity="0.2" d="M249.03 596.606C208.884 599.872 195.585 625.565 191.049 659.723C188.737 677.144 187.711 694.769 173.082 704.967C169.022 707.798 171.037 714.108 175.985 713.953C229.867 712.272 255 685.886 258.156 674.837C257.069 681.822 255.484 687.331 253.73 691.665C251.925 696.117 256.815 700.237 260.885 697.687C276.011 688.21 294.983 670.772 296.244 642.493C285.06 626.775 249.03 596.606 249.03 596.606Z" fill="white"/>
<path d="M302.41 654.653L238.126 590.369L272.373 582.961L309.82 620.406L302.41 654.653Z" fill="#407BFF"/>
</svg>
